<svg width="194" height="27" viewBox="0 0 194 27" fill="none" xmlns="http://www.w3.org/2000/svg">
<path d="M6.09568 4.77265C49.8694 4.77265 93.6183 4.39011 137.371 2.88832C154.514 2.29986 171.652 1.28831 188.806 1.00399C189.347 0.995019 198.449 1.00399 188.841 1.00399C137.839 1.00399 86.92 5.0986 36.1403 9.48347C29.2178 10.0812 22.2958 10.6858 15.3778 11.3329C11.8504 11.6629 8.32131 11.9858 4.80457 12.4147C3.54981 12.5677 1.71615 11.9908 1.0708 13.0777C0.542551 13.9673 3.10984 13.4529 4.14156 13.5313C10.8438 14.0403 20.586 14.0753 26.6488 14.1245C62.9946 14.4194 99.349 14.1943 135.696 14.1943C140.779 14.1943 155.942 13.5057 150.945 14.4386C139.744 16.5293 128.062 17.3681 116.783 18.7306C104.907 20.1651 90.1807 20.1875 78.6075 23.9998C75.3748 25.0647 85.3249 25.2646 88.7271 25.3607C99.9087 25.6766 111.111 25.5003 122.296 25.5003" stroke="#FFD300" stroke-linecap="round"/>
</svg>
