<svg width="24" height="24" viewBox="0 0 24 24" fill="none" xmlns="http://www.w3.org/2000/svg">
<path d="M4.50688 14.2569C4.00621 14.8934 3.87915 15.7471 4.17274 16.5019C4.97307 17.8834 8.29946 17.5023 11.999 15.7465" stroke="#393939" stroke-width="1.5" stroke-linecap="round" stroke-linejoin="round"/>
<path d="M19.4931 9.74306C19.9932 9.1063 20.1202 8.25293 19.8273 7.49812C19.0269 6.11655 15.7005 6.49771 12.001 8.25344" stroke="#393939" stroke-width="1.5" stroke-linecap="round" stroke-linejoin="round"/>
<path d="M15.2564 13.8728C14.9382 17.9465 13.6007 21.0037 12 21.0037C11.3427 21.0037 10.7315 20.4815 10.2153 19.5922" stroke="#393939" stroke-width="1.5" stroke-linecap="round" stroke-linejoin="round"/>
<path d="M6.29162 6.66378C5.48778 6.55024 4.68335 6.867 4.17274 7.49813C3.37241 8.8797 5.36223 11.5618 8.74364 13.8728" stroke="#393939" stroke-width="1.5" stroke-linecap="round" stroke-linejoin="round"/>
<path d="M17.7084 17.3362C18.5122 17.4498 19.3166 17.133 19.8273 16.5019C20.6276 15.1203 18.6378 12.4382 15.2564 10.1272" stroke="#393939" stroke-width="1.5" stroke-linecap="round" stroke-linejoin="round"/>
<path d="M8.74364 10.1272C9.06178 6.05352 10.3993 2.99625 12 2.99625C12.6573 2.99625 13.2685 3.51846 13.7847 4.40783" stroke="#393939" stroke-width="1.5" stroke-linecap="round" stroke-linejoin="round"/>
</svg>
