<svg width="24" height="24" viewBox="0 0 24 24" fill="none" xmlns="http://www.w3.org/2000/svg">
<path d="M15 7.5C15 7.30109 15.079 7.11032 15.2197 6.96967C15.3603 6.82902 15.5511 6.75 15.75 6.75H21.75C21.9489 6.75 22.1397 6.82902 22.2803 6.96967C22.421 7.11032 22.5 7.30109 22.5 7.5C22.5 7.69891 22.421 7.88968 22.2803 8.03033C22.1397 8.17098 21.9489 8.25 21.75 8.25H15.75C15.5511 8.25 15.3603 8.17098 15.2197 8.03033C15.079 7.88968 15 7.69891 15 7.5ZM23.25 14.25C23.25 14.4489 23.171 14.6397 23.0303 14.7803C22.8897 14.921 22.6989 15 22.5 15H15.8438C16.0115 15.6434 16.3877 16.2132 16.9135 16.6202C17.4393 17.0273 18.0851 17.2487 18.75 17.25C19.1441 17.2519 19.5346 17.1749 19.8985 17.0236C20.2624 16.8722 20.5923 16.6496 20.8688 16.3688C21.0093 16.2285 21.1998 16.1497 21.3984 16.1497C21.597 16.1497 21.7875 16.2285 21.9281 16.3688C21.9987 16.4377 22.0548 16.5201 22.0931 16.6111C22.1314 16.702 22.1511 16.7997 22.1511 16.8984C22.1511 16.9971 22.1314 17.0948 22.0931 17.1858C22.0548 17.2768 21.9987 17.3591 21.9281 17.4281C21.5129 17.8487 21.018 18.1823 20.4722 18.4093C19.9265 18.6363 19.341 18.7521 18.75 18.75C17.86 18.75 16.99 18.4861 16.2499 17.9916C15.5099 17.4971 14.9331 16.7943 14.5925 15.9721C14.2519 15.1498 14.1628 14.245 14.3365 13.3721C14.5101 12.4992 14.9387 11.6974 15.568 11.068C16.1974 10.4387 16.9992 10.0101 17.8721 9.83647C18.745 9.66283 19.6498 9.75195 20.4721 10.0925C21.2943 10.4331 21.9971 11.0099 22.4916 11.7499C22.9861 12.49 23.25 13.36 23.25 14.25ZM21.6562 13.5C21.491 12.8547 21.1157 12.2827 20.5895 11.8743C20.0633 11.4658 19.4161 11.2441 18.75 11.2441C18.0839 11.2441 17.4367 11.4658 16.9105 11.8743C16.3843 12.2827 16.009 12.8547 15.8438 13.5H21.6562ZM13.125 14.8125C13.125 15.8568 12.7102 16.8583 11.9717 17.5967C11.2333 18.3352 10.2318 18.75 9.1875 18.75H3C2.80109 18.75 2.61032 18.671 2.46967 18.5303C2.32902 18.3897 2.25 18.1989 2.25 18V6C2.25 5.80109 2.32902 5.61032 2.46967 5.46967C2.61032 5.32902 2.80109 5.25 3 5.25H8.0625C8.74943 5.25096 9.42144 5.45051 9.99757 5.8246C10.5737 6.19869 11.0294 6.73137 11.3098 7.35848C11.5901 7.98559 11.6832 8.68039 11.5778 9.35919C11.4724 10.038 11.173 10.6718 10.7156 11.1844C11.4296 11.485 12.039 11.9896 12.4676 12.635C12.8962 13.2804 13.1249 14.0378 13.125 14.8125ZM3.75 10.875H8.0625C8.60951 10.875 9.13411 10.6577 9.52091 10.2709C9.9077 9.88411 10.125 9.35951 10.125 8.8125C10.125 8.26549 9.9077 7.74089 9.52091 7.35409C9.13411 6.9673 8.60951 6.75 8.0625 6.75H3.75V10.875ZM11.625 14.8125C11.6225 14.1668 11.3649 13.5482 10.9083 13.0917C10.4518 12.6351 9.83321 12.3775 9.1875 12.375H3.75V17.25H9.1875C9.83321 17.2475 10.4518 16.9899 10.9083 16.5333C11.3649 16.0768 11.6225 15.4582 11.625 14.8125Z" fill="#4B4A48"/>
</svg>
