<svg width="24" height="24" viewBox="0 0 24 24" fill="none" xmlns="http://www.w3.org/2000/svg">
<path d="M6.9979 20.0033C5.61662 20.0033 4.49686 18.8836 4.49686 17.5023V14.501C4.49686 13.8377 4.23336 13.2016 3.76432 12.7325C3.29529 12.2635 2.65914 12 1.99582 12C2.65914 12 3.29529 11.7365 3.76432 11.2675C4.23336 10.7984 4.49686 10.1623 4.49686 9.49895V6.4977C4.49686 5.11641 5.61662 3.99666 6.9979 3.99666" stroke="#636363" stroke-width="1.5" stroke-linecap="round" stroke-linejoin="round"/>
<path d="M17.0021 3.99666C18.3834 3.99666 19.5031 5.11641 19.5031 6.4977V9.49895C19.5031 10.8802 20.6229 12 22.0042 12C20.6229 12 19.5031 13.1197 19.5031 14.501V17.5023C19.5031 18.8836 18.3834 20.0033 17.0021 20.0033" stroke="#636363" stroke-width="1.5" stroke-linecap="round" stroke-linejoin="round"/>
<path d="M8.67361 12.082C8.67361 12.0544 8.65122 12.032 8.62359 12.032C8.59597 12.032 8.57357 12.0544 8.57357 12.082C8.57357 12.1097 8.59597 12.132 8.62359 12.132C8.65122 12.132 8.67361 12.1097 8.67361 12.082" stroke="#636363" stroke-width="1.5" stroke-linecap="round" stroke-linejoin="round"/>
<path d="M12.05 12.073C12.05 12.0454 12.0276 12.023 12 12.023C11.9724 12.023 11.95 12.0454 11.95 12.073C11.95 12.1006 11.9724 12.123 12 12.123C12.0276 12.123 12.05 12.1006 12.05 12.073" stroke="#636363" stroke-width="1.5" stroke-linecap="round" stroke-linejoin="round"/>
<path d="M15.0513 12.073C15.0513 12.0454 15.0289 12.023 15.0012 12.023C14.9736 12.023 14.9512 12.0454 14.9512 12.073C14.9512 12.1006 14.9736 12.123 15.0012 12.123C15.0289 12.123 15.0513 12.1006 15.0513 12.073" stroke="#636363" stroke-width="1.5" stroke-linecap="round" stroke-linejoin="round"/>
</svg>
