<svg width="21" height="23" viewBox="0 0 21 23" fill="none" xmlns="http://www.w3.org/2000/svg">
<mask id="path-1-inside-1_9_257" fill="white">
<path fill-rule="evenodd" clip-rule="evenodd" d="M20.6699 16.4732C19.6662 16.4907 18.6432 16.3701 17.6252 16.0973C11.7571 14.5249 8.27469 8.49323 9.84705 2.6251C10.077 1.76703 10.4022 0.959972 10.8084 0.212269C6.02638 0.295865 1.68048 3.51621 0.380896 8.36632C-1.19146 14.2344 2.29094 20.2662 8.15907 21.8385C13.1691 23.181 18.2984 20.8388 20.6699 16.4732Z"/>
</mask>
<path d="M20.6699 16.4732L21.5486 16.9505L22.3673 15.4433L20.6524 15.4733L20.6699 16.4732ZM10.8084 0.212269L11.6871 0.689605L12.5058 -0.817557L10.7909 -0.787578L10.8084 0.212269ZM20.6524 15.4733C19.741 15.4893 18.8111 15.3798 17.884 15.1314L17.3664 17.0632C18.4754 17.3604 19.5914 17.4922 20.6874 17.473L20.6524 15.4733ZM17.884 15.1314C12.5494 13.702 9.38355 8.21858 10.813 2.88392L8.88112 2.36628C7.16582 8.76788 10.9648 15.3479 17.3664 17.0632L17.884 15.1314ZM10.813 2.88392C11.0224 2.10244 11.3182 1.36867 11.6871 0.689605L9.92968 -0.265066C9.48623 0.551271 9.13156 1.43163 8.88112 2.36628L10.813 2.88392ZM1.34682 8.62514C2.52788 4.21736 6.47799 1.28812 10.8259 1.21212L10.7909 -0.787578C5.57477 -0.696393 0.833073 2.81507 -0.585029 8.1075L1.34682 8.62514ZM8.41789 20.8726C3.08323 19.4432 -0.082596 13.9598 1.34682 8.62514L-0.585029 8.1075C-2.30033 14.5091 1.49866 21.0891 7.90025 22.8044L8.41789 20.8726ZM19.7912 15.9958C17.6353 19.9646 12.9712 22.0927 8.41789 20.8726L7.90025 22.8044C13.367 24.2693 18.9616 21.713 21.5486 16.9505L19.7912 15.9958Z" fill="white" mask="url(#path-1-inside-1_9_257)"/>
</svg>
