<svg width="24" height="24" viewBox="0 0 24 24" fill="none" xmlns="http://www.w3.org/2000/svg">
<path fill-rule="evenodd" clip-rule="evenodd" d="M18.0025 17.0021H5.9975C4.33996 17.0021 2.99625 15.6584 2.99625 14.0008V5.9975C2.99625 4.33995 4.33996 2.99625 5.9975 2.99625H18.0025C19.66 2.99625 21.0037 4.33995 21.0037 5.9975V14.0008C21.0037 15.6584 19.66 17.0021 18.0025 17.0021Z" stroke="#636363" stroke-width="1.5" stroke-linecap="round" stroke-linejoin="round"/>
<path d="M14.0008 17.0021L14.501 21.0037" stroke="#636363" stroke-width="1.5" stroke-linecap="round" stroke-linejoin="round"/>
<path d="M9.99916 17.0021L9.49896 21.0037" stroke="#636363" stroke-width="1.5" stroke-linecap="round" stroke-linejoin="round"/>
<path d="M7.198 21.0037H16.802" stroke="#636363" stroke-width="1.5" stroke-linecap="round" stroke-linejoin="round"/>
<path d="M16.7981 9.98007L15.2939 11.4843" stroke="#636363" stroke-width="1.5" stroke-linecap="round" stroke-linejoin="round"/>
<path d="M15.3111 8.49344L16.7981 9.98007" stroke="#636363" stroke-width="1.5" stroke-linecap="round" stroke-linejoin="round"/>
<path d="M8.70611 11.4951L7.20188 9.99121" stroke="#636363" stroke-width="1.5" stroke-linecap="round" stroke-linejoin="round"/>
<path d="M8.68897 8.50412L7.20188 9.9912" stroke="#636363" stroke-width="1.5" stroke-linecap="round" stroke-linejoin="round"/>
<path d="M12.7578 7.49811L11.2536 12.5002" stroke="#636363" stroke-width="1.5" stroke-linecap="round" stroke-linejoin="round"/>
</svg>
