<svg width="628" height="485" viewBox="0 0 628 485" fill="none" xmlns="http://www.w3.org/2000/svg">
<mask id="mask0_422_965" style="mask-type:alpha" maskUnits="userSpaceOnUse" x="52" y="110" width="244" height="374">
<rect x="52" y="110" width="244" height="373.143" fill="#D9D9D9"/>
</mask>
<g mask="url(#mask0_422_965)">
<path opacity="0.5" d="M278.48 115.815H70.6144C64.7522 115.815 60 120.421 60 126.103V519.601C60 525.283 64.7522 529.889 70.6144 529.889H278.48C284.343 529.889 289.095 525.283 289.095 519.601V126.103C289.095 120.421 284.343 115.815 278.48 115.815Z" stroke="black" stroke-width="1.5"/>
</g>
<g opacity="0.5">
<path d="M77.2113 136.578C78.4326 136.578 79.4227 135.619 79.4227 134.435C79.4227 133.251 78.4326 132.292 77.2113 132.292C75.9901 132.292 75 133.251 75 134.435C75 135.619 75.9901 136.578 77.2113 136.578Z" fill="black"/>
<path d="M84.2113 136.578C85.4326 136.578 86.4227 135.619 86.4227 134.435C86.4227 133.251 85.4326 132.292 84.2113 132.292C82.9901 132.292 82 133.251 82 134.435C82 135.619 82.9901 136.578 84.2113 136.578Z" fill="black"/>
<path d="M91.2113 136.578C92.4326 136.578 93.4227 135.619 93.4227 134.435C93.4227 133.251 92.4326 132.292 91.2113 132.292C89.9901 132.292 89 133.251 89 134.435C89 135.619 89.9901 136.578 91.2113 136.578Z" fill="black"/>
</g>
<g opacity="0.5">
<path d="M274.763 129.384H262.237C261.001 129.384 260 129.818 260 130.353C260 130.889 261.001 131.322 262.237 131.322H274.763C275.999 131.322 277 130.889 277 130.353C277 129.818 275.999 129.384 274.763 129.384Z" fill="black"/>
<path d="M274.763 133.261H262.237C261.001 133.261 260 133.695 260 134.23C260 134.765 261.001 135.199 262.237 135.199H274.763C275.999 135.199 277 134.765 277 134.23C277 133.695 275.999 133.261 274.763 133.261Z" fill="black"/>
<path d="M274.763 137.138H262.237C261.001 137.138 260 137.572 260 138.107C260 138.642 261.001 139.076 262.237 139.076H274.763C275.999 139.076 277 138.642 277 138.107C277 137.572 275.999 137.138 274.763 137.138Z" fill="black"/>
</g>
<path d="M288.21 164.681H289.095C291.049 164.681 292.633 166.216 292.633 168.11V208.403C292.633 210.297 291.049 211.832 289.095 211.832H288.21V164.681Z" fill="black"/>
<path d="M174.547 433.06C211.919 433.06 242.214 403.89 242.214 367.906C242.214 331.922 211.919 302.751 174.547 302.751C137.176 302.751 106.88 331.922 106.88 367.906C106.88 403.89 137.176 433.06 174.547 433.06Z" stroke="#FFD300" stroke-width="1.5"/>
<path d="M174.547 343.044C211.919 343.044 242.214 313.874 242.214 277.89C242.214 241.906 211.919 212.736 174.547 212.736C137.176 212.736 106.88 241.906 106.88 277.89C106.88 313.874 137.176 343.044 174.547 343.044Z" stroke="#FFD300" stroke-width="1.5"/>
<path d="M174.99 343.044C186.226 343.044 195.334 334.216 195.334 323.326C195.334 312.437 186.226 303.609 174.99 303.609C163.754 303.609 154.645 312.437 154.645 323.326C154.645 334.216 163.754 343.044 174.99 343.044Z" stroke="#FFD300" stroke-width="1.5"/>
<g opacity="0.5">
<path d="M12 0.75H615C621.213 0.75 626.25 5.7868 626.25 12V36.25H0.75V12C0.75 5.7868 5.7868 0.75 12 0.75Z" stroke="black" stroke-width="1.5"/>
<path d="M0.75 36.75H626.25V472C626.25 478.213 621.213 483.25 615 483.25H12C5.7868 483.25 0.75 478.213 0.75 472V36.75Z" stroke="black" stroke-width="1.5"/>
<path fill-rule="evenodd" clip-rule="evenodd" d="M22 19C22 20.1046 21.1046 21 20 21C18.8954 21 18 20.1046 18 19C18 17.8954 18.8954 17 20 17C21.1046 17 22 17.8954 22 19ZM30 19C30 20.1046 29.1046 21 28 21C26.8954 21 26 20.1046 26 19C26 17.8954 26.8954 17 28 17C29.1046 17 30 17.8954 30 19ZM36 21C37.1046 21 38 20.1046 38 19C38 17.8954 37.1046 17 36 17C34.8954 17 34 17.8954 34 19C34 20.1046 34.8954 21 36 21Z" fill="black"/>
</g>
</svg>
