<svg width="160" height="42" viewBox="0 0 160 42" fill="none" xmlns="http://www.w3.org/2000/svg">
<ellipse cx="20.5" cy="20.5" rx="15.5" ry="14.5" fill="black"/>
<path d="M20.4735 0.492676C9.16347 0.492676 0 9.65615 0 20.9662C0 32.2762 9.16347 41.4397 20.4735 41.4397C31.7835 41.4397 40.947 32.2762 40.947 20.9662C40.947 9.65615 31.7835 0.492676 20.4735 0.492676ZM8.87486 28.7046L11.6167 13.2277H15.549L12.8253 28.7046H8.87486ZM19.0304 27.8929C19.0304 28.3439 18.6697 28.7227 18.2007 28.7227H15.9098C15.4588 28.7227 15.08 28.3619 15.08 27.8929V25.602C15.08 25.133 15.4408 24.7723 15.9098 24.7723H18.2007C18.6516 24.7723 19.0304 25.133 19.0304 25.602V27.8929ZM24.929 28.7046H20.9966L23.7204 13.2277H27.6708L24.929 28.7046ZM33.1003 16.3484C33.1003 16.7993 32.7396 17.1781 32.2706 17.1781H29.9797C29.5287 17.1781 29.1499 16.8174 29.1499 16.3484V14.0395C29.168 13.5885 29.5287 13.2277 29.9797 13.2277H32.2706C32.7215 13.2277 33.1003 13.5885 33.1003 14.0575V16.3484Z" fill="#FFD300"/>
<path d="M47.7114 27.7847V14.4002H50.5434V25.4577H56.2796V27.7847H47.7114Z" fill="black"/>
<path d="M64.5412 23.5096V17.7373H67.3192V27.7847H64.6495V25.9628H64.5412C64.3067 26.558 63.946 27.027 63.4048 27.3878C62.8817 27.7486 62.2323 27.929 61.4928 27.929C60.8253 27.929 60.2301 27.7847 59.725 27.478C59.2199 27.1714 58.8231 26.7384 58.5345 26.1792C58.2459 25.6201 58.1016 24.9526 58.1016 24.159V17.7553H60.8795V23.6539C60.8795 24.2491 61.0418 24.7181 61.3485 25.0609C61.6551 25.4036 62.088 25.584 62.6111 25.584C62.9539 25.584 63.2605 25.5118 63.5491 25.3495C63.8377 25.1871 64.0723 24.9707 64.2526 24.664C64.4691 24.3393 64.5412 23.9605 64.5412 23.5096Z" fill="black"/>
<path d="M70.9449 16.4566C70.5301 16.4566 70.1693 16.3123 69.8807 16.0417C69.5921 15.7711 69.4478 15.4284 69.4478 15.0496C69.4478 14.6708 69.5921 14.3281 69.8807 14.0575C70.1693 13.7869 70.5301 13.6426 70.9449 13.6426C71.3598 13.6426 71.7206 13.7869 72.0092 14.0575C72.2978 14.3281 72.4421 14.6708 72.4421 15.0496C72.4421 15.4464 72.2978 15.7711 72.0092 16.0417C71.7206 16.3123 71.3598 16.4566 70.9449 16.4566ZM69.556 27.7847V17.7553H72.3339V27.8027L69.556 27.7847Z" fill="black"/>
<path d="M74.4983 27.7847V26.1251L79.4047 20.0462V19.9741H74.6787V17.7553H82.7779V19.5592L78.1601 25.4938V25.5659H82.9402V27.7847H74.4983Z" fill="black"/>
<path d="M89.3979 27.7847V14.4002H94.6832C95.6933 14.4002 96.5592 14.5806 97.2807 14.9414C98.0022 15.3022 98.5434 15.8072 98.9222 16.4566C99.301 17.106 99.4814 17.8816 99.4814 18.7655C99.4814 19.6494 99.283 20.425 98.9041 21.0564C98.5253 21.6877 97.9662 22.1928 97.2446 22.5175C96.5231 22.8602 95.6392 23.0226 94.611 23.0226H91.0755V20.7497H94.1601C94.7012 20.7497 95.1522 20.6776 95.5129 20.5333C95.8737 20.389 96.1443 20.1545 96.3066 19.8659C96.487 19.5772 96.5772 19.1984 96.5772 18.7655C96.5772 18.3146 96.487 17.9538 96.3066 17.6471C96.1263 17.3405 95.8557 17.106 95.4949 16.9436C95.1341 16.7813 94.6832 16.7091 94.142 16.7091H92.23V27.7847H89.3979ZM96.6313 21.6877L99.9504 27.7847H96.8297L93.5828 21.6877H96.6313Z" fill="black"/>
<path d="M102.837 16.4566C102.422 16.4566 102.061 16.3123 101.772 16.0417C101.484 15.7711 101.339 15.4284 101.339 15.0496C101.339 14.6708 101.484 14.3281 101.772 14.0575C102.061 13.7869 102.422 13.6426 102.837 13.6426C103.251 13.6426 103.612 13.7869 103.901 14.0575C104.189 14.3281 104.334 14.6708 104.334 15.0496C104.334 15.4464 104.189 15.7711 103.901 16.0417C103.594 16.3123 103.251 16.4566 102.837 16.4566ZM101.43 27.7847V17.7553H104.207V27.8027L101.43 27.7847Z" fill="black"/>
<path d="M110.972 27.9831C109.944 27.9831 109.06 27.7666 108.32 27.3337C107.581 26.9008 107.021 26.2875 106.625 25.5118C106.228 24.7362 106.029 23.8343 106.029 22.8241C106.029 21.7959 106.228 20.894 106.625 20.1184C107.021 19.3427 107.599 18.7294 108.32 18.2965C109.042 17.8636 109.926 17.6471 110.954 17.6471C111.838 17.6471 112.595 17.8095 113.263 18.1161C113.912 18.4408 114.435 18.8737 114.832 19.451C115.211 20.0282 115.427 20.6956 115.463 21.4713H112.83C112.758 20.9662 112.559 20.5693 112.253 20.2627C111.928 19.956 111.531 19.7937 111.008 19.7937C110.575 19.7937 110.196 19.9019 109.89 20.1364C109.565 20.3709 109.312 20.7136 109.15 21.1466C108.97 21.5975 108.879 22.1206 108.879 22.77C108.879 23.4194 108.97 23.9605 109.15 24.4115C109.33 24.8625 109.583 25.2052 109.89 25.4397C110.214 25.6742 110.593 25.8005 111.026 25.8005C111.351 25.8005 111.639 25.7283 111.892 25.602C112.144 25.4758 112.361 25.2773 112.523 25.0248C112.685 24.7723 112.794 24.4656 112.848 24.1229H115.481C115.445 24.8985 115.229 25.566 114.85 26.1432C114.471 26.7204 113.966 27.1714 113.317 27.5141C112.631 27.8207 111.874 27.9831 110.972 27.9831Z" fill="black"/>
<path d="M120.117 27.9831C119.468 27.9831 118.909 27.8749 118.404 27.6404C117.899 27.4059 117.502 27.0812 117.213 26.6483C116.925 26.1973 116.78 25.6562 116.78 24.9887C116.78 24.4295 116.888 23.9605 117.087 23.5817C117.285 23.2029 117.574 22.8963 117.917 22.6618C118.277 22.4273 118.674 22.2649 119.125 22.1387C119.576 22.0124 120.045 21.9403 120.55 21.8861C121.128 21.832 121.596 21.7599 121.957 21.7058C122.318 21.6516 122.571 21.5614 122.733 21.4532C122.895 21.345 122.967 21.1826 122.967 20.9662V20.9301C122.967 20.5152 122.841 20.1905 122.571 19.9741C122.318 19.7396 121.939 19.6313 121.47 19.6313C120.965 19.6313 120.568 19.7396 120.28 19.956C119.991 20.1725 119.793 20.4431 119.684 20.7858L117.105 20.5693C117.231 19.956 117.484 19.4329 117.881 18.982C118.259 18.531 118.764 18.1883 119.36 17.9538C119.955 17.7193 120.677 17.593 121.47 17.593C122.029 17.593 122.571 17.6652 123.076 17.7914C123.581 17.9177 124.05 18.1161 124.447 18.4047C124.843 18.6753 125.168 19.0361 125.385 19.469C125.619 19.9019 125.727 20.407 125.727 21.0023V27.7666H123.094V26.3777H123.022C122.859 26.6843 122.643 26.9729 122.372 27.2074C122.102 27.4419 121.777 27.6223 121.398 27.7666C121.037 27.9109 120.604 27.9831 120.117 27.9831ZM120.911 26.053C121.326 26.053 121.687 25.9628 121.993 25.8005C122.3 25.6381 122.553 25.4217 122.733 25.133C122.913 24.8625 123.003 24.5378 123.003 24.177V23.1127C122.913 23.1669 122.805 23.221 122.643 23.2751C122.498 23.3292 122.318 23.3653 122.138 23.4014C121.957 23.4374 121.759 23.4735 121.578 23.4916C121.398 23.5276 121.218 23.5457 121.073 23.5637C120.749 23.6178 120.46 23.69 120.226 23.7982C119.973 23.9064 119.793 24.0507 119.648 24.2131C119.504 24.3935 119.45 24.6099 119.45 24.8625C119.45 25.2413 119.594 25.5299 119.865 25.7283C120.135 25.9267 120.478 26.053 120.911 26.053Z" fill="black"/>
<path d="M128.938 27.7847V17.7554H131.644V19.5051H131.752C131.932 18.8737 132.239 18.4047 132.672 18.0981C133.105 17.7914 133.592 17.6111 134.169 17.6111C134.313 17.6111 134.458 17.6111 134.62 17.6291C134.782 17.6471 134.927 17.6652 135.053 17.7012V20.1725C134.927 20.1364 134.746 20.1003 134.512 20.0643C134.277 20.0282 134.061 20.0102 133.88 20.0102C133.466 20.0102 133.105 20.1003 132.78 20.2807C132.455 20.4611 132.203 20.6956 132.023 21.0203C131.842 21.3269 131.752 21.6877 131.752 22.1026V27.7847H128.938Z" fill="black"/>
<path d="M139.689 27.947C138.931 27.947 138.228 27.7486 137.615 27.3518C137.001 26.9549 136.514 26.3777 136.153 25.602C135.793 24.8264 135.612 23.8884 135.612 22.77C135.612 21.6156 135.793 20.6595 136.171 19.9019C136.55 19.1443 137.037 18.5671 137.651 18.1883C138.264 17.8095 138.949 17.6111 139.689 17.6111C140.248 17.6111 140.717 17.7013 141.096 17.8997C141.475 18.0981 141.781 18.3326 142.016 18.6032C142.25 18.8918 142.431 19.1624 142.557 19.4329H142.647V14.4002H145.425V27.7847H142.683V26.1793H142.557C142.431 26.4498 142.25 26.7385 141.998 27.009C141.745 27.2796 141.457 27.5141 141.078 27.6945C140.699 27.8568 140.23 27.947 139.689 27.947ZM140.573 25.7283C141.024 25.7283 141.403 25.602 141.709 25.3675C142.016 25.115 142.268 24.7723 142.431 24.3394C142.593 23.9064 142.683 23.3653 142.683 22.77C142.683 22.1748 142.593 21.6516 142.431 21.2187C142.268 20.7858 142.034 20.4431 141.709 20.1905C141.403 19.956 141.006 19.8298 140.573 19.8298C140.122 19.8298 139.725 19.956 139.418 20.2086C139.112 20.4611 138.859 20.8038 138.697 21.2368C138.535 21.6697 138.462 22.1928 138.462 22.77C138.462 23.3473 138.553 23.8704 138.715 24.3213C138.877 24.7723 139.112 25.115 139.418 25.3675C139.743 25.602 140.122 25.7283 140.573 25.7283Z" fill="black"/>
<path d="M152.226 27.9831C151.216 27.9831 150.332 27.7666 149.592 27.3337C148.853 26.9008 148.275 26.2875 147.878 25.5118C147.482 24.7362 147.283 23.8343 147.283 22.8061C147.283 21.7779 147.482 20.858 147.878 20.0823C148.275 19.3067 148.853 18.6934 149.592 18.2604C150.332 17.8275 151.216 17.6111 152.226 17.6111C153.236 17.6111 154.12 17.8275 154.859 18.2604C155.599 18.6934 156.176 19.3067 156.573 20.0823C156.97 20.858 157.168 21.7599 157.168 22.8061C157.168 23.8343 156.97 24.7362 156.573 25.5118C156.176 26.2875 155.599 26.9008 154.859 27.3337C154.12 27.7666 153.236 27.9831 152.226 27.9831ZM152.244 25.8185C152.713 25.8185 153.092 25.6922 153.398 25.4216C153.705 25.1511 153.939 24.7903 154.102 24.3394C154.264 23.8884 154.336 23.3653 154.336 22.77C154.336 22.1928 154.264 21.6697 154.102 21.2007C153.939 20.7497 153.705 20.389 153.398 20.1184C153.092 19.8478 152.695 19.7215 152.244 19.7215C151.775 19.7215 151.378 19.8478 151.071 20.1184C150.747 20.389 150.512 20.7497 150.35 21.2007C150.187 21.6516 150.115 22.1748 150.115 22.77C150.115 23.3472 150.187 23.8704 150.35 24.3394C150.512 24.7903 150.747 25.1511 151.071 25.4216C151.378 25.6922 151.775 25.8185 152.244 25.8185Z" fill="black"/>
<path d="M158.413 17.4848C158.196 17.4848 157.998 17.4487 157.799 17.3585C157.601 17.2683 157.438 17.1601 157.294 17.0158C157.15 16.8715 157.042 16.7092 156.951 16.5107C156.879 16.3304 156.825 16.1139 156.825 15.8974C156.825 15.681 156.861 15.4826 156.951 15.2841C157.042 15.0857 157.15 14.9234 157.294 14.7791C157.438 14.6347 157.601 14.5265 157.799 14.4363C157.998 14.3461 158.196 14.3101 158.413 14.3101C158.629 14.3101 158.827 14.3461 159.026 14.4363C159.224 14.5265 159.387 14.6347 159.531 14.7791C159.675 14.9234 159.783 15.0857 159.874 15.2841C159.964 15.4826 160 15.681 160 15.8974C160 16.1139 159.964 16.3123 159.874 16.5107C159.802 16.7092 159.675 16.8715 159.531 17.0158C159.387 17.1601 159.224 17.2683 159.026 17.3585C158.827 17.4487 158.629 17.4848 158.413 17.4848ZM158.413 17.106C158.629 17.106 158.827 17.0519 159.008 16.9437C159.188 16.8354 159.333 16.6911 159.441 16.5107C159.549 16.3304 159.603 16.1319 159.603 15.9155C159.603 15.699 159.549 15.5006 159.441 15.3202C159.333 15.1398 159.188 14.9955 159.008 14.8873C158.827 14.7791 158.629 14.7249 158.413 14.7249C158.196 14.7249 157.998 14.7791 157.817 14.8873C157.637 14.9955 157.493 15.1398 157.384 15.3202C157.276 15.5006 157.222 15.699 157.222 15.9155C157.222 16.1319 157.276 16.3304 157.384 16.5107C157.493 16.6911 157.637 16.8354 157.817 16.9437C157.998 17.0519 158.196 17.106 158.413 17.106ZM157.871 16.619V15.1759H158.611C158.665 15.1759 158.737 15.1939 158.809 15.23C158.882 15.2661 158.936 15.3202 158.99 15.3743C159.044 15.4465 159.062 15.5367 159.062 15.6269C159.062 15.7351 159.044 15.8253 158.99 15.8974C158.936 15.9696 158.882 16.0237 158.809 16.0598C158.737 16.0959 158.665 16.1139 158.611 16.1139H158.088V15.8794H158.521C158.557 15.8794 158.611 15.8614 158.665 15.8072C158.719 15.7712 158.737 15.699 158.737 15.6088C158.737 15.5186 158.719 15.4645 158.665 15.4284C158.611 15.3924 158.575 15.3743 158.539 15.3743H158.196V16.5829H157.871V16.619ZM158.737 15.9335L159.098 16.619H158.755L158.395 15.9335H158.737Z" fill="black"/>
</svg>
