<svg width="30" height="30" viewBox="0 0 30 30" fill="none" xmlns="http://www.w3.org/2000/svg">
<ellipse cx="15" cy="14.5" rx="11" ry="10.5" fill="white"/>
<path d="M15 0C6.71366 0 0 6.71366 0 15C0 23.2863 6.71366 30 15 30C23.2863 30 30 23.2863 30 15C30 6.71366 23.2863 0 15 0ZM6.5022 20.6696L8.51101 9.3304H11.3921L9.39648 20.6696H6.5022ZM13.9427 20.0749C13.9427 20.4053 13.6784 20.6828 13.3348 20.6828H11.6564C11.326 20.6828 11.0485 20.4185 11.0485 20.0749V18.3965C11.0485 18.0529 11.3128 17.7885 11.6564 17.7885H13.3348C13.6652 17.7885 13.9427 18.0529 13.9427 18.3965V20.0749ZM18.2643 20.6696H15.3833L17.3789 9.3304H20.2731L18.2643 20.6696ZM24.2511 11.6167C24.2511 11.9471 23.9868 12.2247 23.6432 12.2247H21.9648C21.6344 12.2247 21.3568 11.9604 21.3568 11.6167V9.92511C21.37 9.59471 21.6344 9.3304 21.9648 9.3304H23.6432C23.9736 9.3304 24.2511 9.59471 24.2511 9.93833V11.6167Z" fill="#0B0A04"/>
</svg>
