<svg width="1440" height="621" viewBox="0 0 1440 621" fill="none" xmlns="http://www.w3.org/2000/svg">
<g opacity="0.2">
<path d="M393.49 620H236L345.147 1H502.637L393.49 620Z" stroke="white" stroke-miterlimit="10"/>
<path d="M608.273 462.52H516.691C498.494 462.52 483.742 477.272 483.742 495.469V587.051C483.742 605.248 498.494 620 516.691 620H608.273C626.47 620 641.222 605.248 641.222 587.051V495.469C641.222 477.272 626.47 462.52 608.273 462.52Z" stroke="white" stroke-miterlimit="10"/>
<path d="M986.614 1H829.134L719.987 620H877.467L986.614 1Z" stroke="white" stroke-miterlimit="10"/>
<path d="M1171 1H1079.42C1061.23 1 1046.47 15.7518 1046.47 33.9491V125.531C1046.47 143.728 1061.23 158.48 1079.42 158.48H1171C1189.2 158.48 1203.95 143.728 1203.95 125.531V33.9491C1203.95 15.7518 1189.2 1 1171 1Z" stroke="white" stroke-miterlimit="10"/>
</g>
</svg>
