<svg width="88" height="88" viewBox="0 0 88 88" fill="none" xmlns="http://www.w3.org/2000/svg">
<rect width="88" height="88" fill="#FFD300"/>
<path d="M23.7622 63.0056H13.9999L20.7656 24.6359H30.5278L23.7622 63.0056Z" fill="#0B0A04"/>
<path d="M37.0758 53.2439H31.3989C30.2709 53.2439 29.3565 54.1583 29.3565 55.2863V60.9631C29.3565 62.0911 30.2709 63.0055 31.3989 63.0055H37.0758C38.2037 63.0055 39.1182 62.0911 39.1182 60.9631V55.2863C39.1182 54.1583 38.2037 53.2439 37.0758 53.2439Z" fill="#0B0A04"/>
<path d="M60.5278 24.6359H50.7662L44.0006 63.0056H53.7622L60.5278 24.6359Z" fill="#0B0A04"/>
<path d="M71.9576 24.6359H66.2808C65.1528 24.6359 64.2384 25.5503 64.2384 26.6783V32.3551C64.2384 33.4831 65.1528 34.3975 66.2808 34.3975H71.9576C73.0856 34.3975 74 33.4831 74 32.3551V26.6783C74 25.5503 73.0856 24.6359 71.9576 24.6359Z" fill="#0B0A04"/>
</svg>
